<?xml version="1.0" standalone="no"?>
<!DOCTYPE svg PUBLIC "-//W3C//DTD SVG 20010904//EN"
 "http://www.w3.org/TR/2001/REC-SVG-20010904/DTD/svg10.dtd">
<svg version="1.0" xmlns="http://www.w3.org/2000/svg"
 width="128.000000pt" height="128.000000pt" viewBox="0 0 128.000000 128.000000"
 preserveAspectRatio="xMidYMid meet">

<g transform="translate(0.000000,128.000000) scale(0.100000,-0.100000)"
fill="#000000" stroke="none">
<path d="M307 1264 c-180 -32 -259 -114 -292 -300 -11 -61 -15 -157 -15 -324
0 -167 4 -263 15 -324 33 -189 112 -268 301 -301 120 -21 528 -21 648 0 189
33 268 112 301 301 21 120 21 528 0 648 -33 189 -112 268 -301 301 -115 20
-544 20 -657 -1z m495 -344 c87 -97 148 -173 148 -185 0 -33 -20 -45 -76 -45
-51 0 -54 2 -107 58 -30 31 -69 74 -87 95 -18 20 -39 37 -49 36 -9 0 -54 -43
-100 -95 l-83 -94 -59 0 c-48 0 -60 3 -69 20 -15 29 -4 45 143 210 144 162
155 172 177 168 8 -2 81 -77 162 -168z m-477 -314 c28 -12 65 -58 65 -81 0
-16 -43 -1 -68 25 -37 36 -65 38 -97 5 -38 -37 -32 -140 9 -167 25 -17 75 -8
94 17 11 14 27 25 35 25 31 0 28 -21 -6 -55 -31 -31 -41 -35 -85 -35 -86 0
-128 54 -120 155 5 60 24 89 73 111 39 17 58 17 100 0z m715 -41 c0 -20 5 -25
25 -25 32 0 34 -27 3 -32 -21 -3 -23 -8 -23 -63 0 -55 2 -60 23 -63 14 -2 22
-10 22 -23 0 -15 -7 -19 -34 -19 -46 0 -60 21 -62 98 -2 51 -6 68 -18 70 -22
5 -20 29 3 35 14 3 18 11 14 26 -4 17 -1 21 21 21 21 0 26 -5 26 -25z m-467
-46 c13 -16 17 -40 17 -100 0 -78 0 -79 -25 -79 -14 0 -25 5 -25 12 0 9 -3 9
-12 0 -15 -15 -63 -16 -89 -2 -13 7 -19 21 -19 45 0 42 29 65 83 65 34 0 38 3
35 23 -3 25 -43 36 -61 18 -17 -17 -57 -14 -51 4 18 46 113 55 147 14z m175 4
c3 -18 -2 -22 -30 -25 l-33 -3 -3 -77 c-3 -75 -4 -78 -27 -78 -25 0 -25 0 -25
100 l0 100 25 0 c14 0 25 -5 25 -11 0 -6 7 -3 16 6 22 21 48 15 52 -12z m145
16 c28 -13 42 -34 52 -77 l7 -32 -72 0 c-67 0 -71 -1 -68 -21 4 -30 39 -41 73
-23 29 15 55 18 55 7 0 -4 -10 -17 -22 -30 -24 -26 -91 -32 -119 -10 -57 43
-50 149 12 183 30 16 51 17 82 3z"/>
<path d="M508 433 c-39 -6 -56 -30 -35 -50 24 -24 67 -3 67 32 0 14 -1 24 -2
24 -2 -1 -15 -4 -30 -6z"/>
<path d="M822 498 c-25 -25 -13 -38 33 -38 49 0 50 1 35 31 -12 21 -50 25 -68
7z"/>
</g>
</svg>
